<?xml version="1.0" encoding="utf-8"?>
<!-- Generator: Adobe Illustrator 24.0.2, SVG Export Plug-In . SVG Version: 6.00 Build 0)  -->
<svg version="1.1" id="Capa_1" xmlns="http://www.w3.org/2000/svg" xmlns:xlink="http://www.w3.org/1999/xlink" x="0px" y="0px"
	 viewBox="0 0 512 512" style="enable-background:new 0 0 512 512;" xml:space="preserve">
<style type="text/css">
	.st0{fill:#FE8B00;}
</style>
<g id="Outline">
	<path class="st0" d="M397.5,16c-26.1-0.1-51.2,10.3-69.7,28.9L51.3,321.4c-6.2,6.3-6.2,16.4,0,22.6L64,356.7
		c6.3,6.2,16.4,6.2,22.6,0l28.7-28.7l68.7,68.7l-12.7,12.7l-56.8-56.8l-11.3,11.3l56.8,56.8l-4.7,4.7c-6.2,6.3-6.2,16.4,0,22.6
		l12.5,12.5c-34.8,29.4-86.8,25.1-116.3-9.7c-23.5-27.7-26-67.6-6.3-98.1L31.8,344C2.3,389.7,15.3,450.7,61,480.2
		c39,25.2,90.3,19.8,123.2-13.1l51.1-51.1l1.3-1.3l-0.1-0.1c5-6.4,4.5-15.5-1.3-21.2l-12.7-12.7c-6.2-6.2-16.4-6.2-22.6,0
		c0,0,0,0,0,0l-4.7,4.7l-5.7-5.7l15.8-23.7c10.9-16.4,6.5-38.5-9.9-49.4c-12-8-27.5-8-39.5,0l-23.7,15.8l-5.7-5.7l4.7-4.7
		c6.2-6.2,6.2-16.4,0-22.6c0,0,0,0,0,0l-12.7-12.7L275.3,120l12.7,12.7c6.3,6.2,16.4,6.2,22.6,0l4.7-4.7l5.7,5.7l-15.8,23.7
		c-10.9,16.4-6.4,38.5,9.9,49.4c11.9,7.9,27.5,7.9,39.4,0l23.7-15.8l5.7,5.7l-4.7,4.7c-6.2,6.3-6.2,16.4,0,22.6l12.7,12.7
		L245.8,382.8l11.3,11.3l201-201l1.2-1.2c6.2-6.2,6.2-16.4,0-22.6c0,0,0,0,0,0l-12.7-12.7c-6.2-6.2-16.4-6.2-22.6,0c0,0,0,0,0,0
		l-4.7,4.7l-68.7-68.7l4.7-4.7c6.2-6.2,6.2-16.4,0-22.6c0,0,0,0,0,0l-12.6-12.6c34.1-30.2,86.2-27.1,116.5,6.9
		c24.4,27.4,27.7,67.7,8.1,98.7l13.5,8.5c29-46.1,15.1-106.9-30.9-135.8C434.2,21.2,416,16,397.5,16z M224,404.7l-44.7,44.7
		l-12.7-12.7l44.7-44.7L224,404.7z M164.9,319.9c9-6,21.2-3.6,27.2,5.4c4.4,6.6,4.4,15.2,0,21.8l-14,21.1l-34.2-34.2L164.9,319.9z
		 M120,300.7l-44.7,44.7l-12.7-12.7l44.7-44.7L120,300.7z M345.7,193.5c-9,6-21.2,3.6-27.2-5.4c-4.4-6.6-4.4-15.2,0-21.7l14-21.1
		l34.2,34.2L345.7,193.5z M448,180.7l-1.2,1.2l0,0l-43.5,43.5l-12.7-12.7l44.7-44.7L448,180.7z M408,172.7l-12.7,12.7l-68.7-68.7
		l12.7-12.7L408,172.7z M299.3,121.4l-12.7-12.7L331.3,64L344,76.7L299.3,121.4z"/>
	<path class="st0" d="M323.3,176.7c0,6.6,5.4,12,12,12s12-5.4,12-12s-5.4-12-12-12C328.7,164.7,323.3,170.1,323.3,176.7z"/>
	<path class="st0" d="M187.3,336.7c0-6.6-5.4-12-12-12s-12,5.4-12,12s5.4,12,12,12C181.9,348.7,187.3,343.3,187.3,336.7z"/>
</g>
</svg>
