<?xml version="1.0" encoding="utf-8"?>
<!-- Generator: Adobe Illustrator 24.0.2, SVG Export Plug-In . SVG Version: 6.00 Build 0)  -->
<svg version="1.1" id="Capa_1" xmlns="http://www.w3.org/2000/svg" xmlns:xlink="http://www.w3.org/1999/xlink" x="0px" y="0px"
	 viewBox="0 0 496 496" style="enable-background:new 0 0 496 496;" xml:space="preserve">
<style type="text/css">
	.st0{fill:#FE8B00;}
</style>
<g>
	<g>
		<g>
			<path class="st0" d="M489.4,180.6L489.4,180.6c-4.2-3-9.5-3.8-14.4-2.2l-36.2,12.1H57.3l-36.2-12.1c-8.4-2.8-17.4,1.7-20.2,10.1
				c-0.5,1.6-0.8,3.3-0.8,5.1v15.1c0,6.9,4.4,13,10.9,15.2l42.5,14.2c0.8,0.3,1.7,0.4,2.5,0.4h40h304h40c0.9,0,1.7-0.1,2.5-0.4
				l42.5-14.2c6.5-2.2,10.9-8.3,10.9-15.2v-15.1C496,188.4,493.5,183.6,489.4,180.6z M480,208.7l-41.3,13.8H57.3L16,208.7v-15.1
				L53.5,206c0.8,0.3,1.7,0.4,2.5,0.4h384c0.9,0,1.7-0.1,2.5-0.4l37.5-12.5V208.7z"/>
			<path class="st0" d="M56,278.4c0,22.1,17.9,40,40,40s40-17.9,40-40s-17.9-40-40-40C73.9,238.5,56,256.4,56,278.4z M96,254.4
				c13.3,0,24,10.7,24,24s-10.7,24-24,24s-24-10.7-24-24S82.7,254.4,96,254.4z"/>
			<path class="st0" d="M360,278.4c0,22.1,17.9,40,40,40s40-17.9,40-40s-17.9-40-40-40C377.9,238.5,360,256.4,360,278.4z M400,254.4
				c13.3,0,24,10.7,24,24s-10.7,24-24,24s-24-10.7-24-24S386.7,254.4,400,254.4z"/>
			<circle class="st0" cx="400" cy="278.4" r="16"/>
			<circle class="st0" cx="96" cy="278.4" r="16"/>
		</g>
	</g>
</g>
</svg>
