<?xml version="1.0" encoding="utf-8"?>
<!-- Generator: Adobe Illustrator 24.0.2, SVG Export Plug-In . SVG Version: 6.00 Build 0)  -->
<svg version="1.1" id="Capa_1" xmlns="http://www.w3.org/2000/svg" xmlns:xlink="http://www.w3.org/1999/xlink" x="0px" y="0px"
	 viewBox="0 0 512 512" style="enable-background:new 0 0 512 512;" xml:space="preserve">
<style type="text/css">
	.st0{fill:#FE8B00;}
</style>
<path class="st0" d="M475.1,0H36.9C16.5,0,0,16.5,0,36.9v438.1C0,495.5,16.5,512,36.9,512h236.6V314H207v-77.5h66.5v-57
	c0-66.1,40.4-102.1,99.4-102.1c28.3,0,52.5,2.1,59.6,3v69.1h-40.7c-32.1,0-38.3,15.3-38.3,37.6v49.4h76.8l-10,77.5h-66.8v198h121.6
	c20.4,0,36.9-16.5,36.9-36.9V36.9C512,16.5,495.5,0,475.1,0z"/>
</svg>
