<?xml version="1.0" encoding="utf-8"?>
<!-- Generator: Adobe Illustrator 24.0.2, SVG Export Plug-In . SVG Version: 6.00 Build 0)  -->
<svg version="1.1" id="Capa_1" xmlns="http://www.w3.org/2000/svg" xmlns:xlink="http://www.w3.org/1999/xlink" x="0px" y="0px"
	 viewBox="0 0 512 512" style="enable-background:new 0 0 512 512;" xml:space="preserve">
<style type="text/css">
	.st0{fill:#FE8B00;}
</style>
<g id="outline">
	<path class="st0" d="M36.7,263.3l31.9,14.6c4.9,2.3,10.8,0.3,13.1-4.7c0.3-0.7,0.6-1.4,0.7-2.1l2.9-7.1H96c4.4,0,8-3.6,8-8v-22.9
		l14.7-51.5l37.7-18.8l11.6,23.2V232c0,20.7,15.9,38,36.5,39.8l32.2,32.2l-58.3,58.3c-2.9,2.9-3.1,7.6-0.5,10.8l40,48
		c2.1,2.5,5.6,3.5,8.7,2.5l18.6-6.2c-12.5,28.3,0.4,61.4,28.7,73.8c18,7.9,38.8,5.8,54.9-5.5l124.1-87.8l0,0l13.1-9.2l0,0l6.5-4.6
		c25.2-17.9,31.2-52.8,13.4-78.1c-15.6-22.1-44.9-29.9-69.4-18.4l-0.7-2.1c-1.1-3.3-4.1-5.5-7.6-5.5h-27.5l-31.1-51.8
		c-10.5-17.4-29.4-28.1-49.7-28.2H256v-44l27.5-20.6l26-6.5l19.9,19.9l7.4,14.8c1.4,2.7,4.1,4.4,7.2,4.4h32c3.7,0,6.9-2.5,7.8-6.1
		l8-32c0.7-2.7-0.1-5.6-2.1-7.6l-8-8c-0.6-0.6-1.3-1.1-2.1-1.5l-15.2-7.6l-28.9-23.1c-8.4-6.7-19.3-9.6-30-7.8L247.2,84v-4
		c4.4,0,8-3.6,8-8v-8c0-26.5-21.5-48-48-48s-48,21.5-48,48v8c0,4.4,3.6,8,8,8v16H152c-1.3,0-2.6,0.3-3.8,1l-60.6,33.5
		c-9.3,5.3-15.9,14.3-18.2,24.8L56.7,212l-14.4,14.4c-0.9,0.9-1.5,1.9-1.9,3.1l-8,24C31.1,257.3,33,261.6,36.7,263.3z M253.7,309.7
		c3.1-3.1,3.1-8.2,0-11.3c0,0,0,0,0,0L227.3,272h49.4l17.2,17.2c8,8,8,20.9,0,28.9c-0.3,0.3-0.7,0.6-1,0.9l-52.6,46L219.3,344
		L253.7,309.7z M226.6,406.7l-31.8-38.2l13.2-13.2l24.8,24.8l5.7,22.7L226.6,406.7z M248.9,378.8l54.5-47.7
		c15.1-13.3,16.7-36.3,3.4-51.4c-0.5-0.6-1.1-1.2-1.7-1.8l-5.9-5.9h8.4l29.6,44.4l11.7,17.6L264,394.3c-3.3,2.4-6.4,5.1-9.1,8.1
		L248.9,378.8z M456.6,375.6l-13.1,9.2c-3.6,2.5-8.6,1.6-11.1-2c-2.5-3.6-1.6-8.5,1.9-11l13.1-9.2c3.6-2.5,8.6-1.6,11.1,2
		C461,368.1,460.1,373,456.6,375.6L456.6,375.6z M438.1,349.5l-13.1,9.2l-9.2-13.1l0,0l13.1-9.2L438.1,349.5z M410.4,310.3
		c3.6-2.5,8.6-1.7,11.1,2c2.5,3.6,1.7,8.5-1.9,11.1l-13.1,9.2c-3.6,2.6-8.6,1.7-11.2-1.9s-1.7-8.6,1.9-11.2l0,0L410.4,310.3z
		 M378.8,332.6c2.5,8.9,9.9,15.6,19,17.1c0.4,0.1,0.9,0.1,1.3,0.2l16.3,23.1c-0.1,0.4-0.2,0.8-0.3,1.3c-1.6,9.1,2.3,18.3,9.8,23.6
		l-67.6,47.8c-2.6-9.4-10.7-16.2-20.4-17.3l-16.3-23.1c0.1-0.4,0.2-0.8,0.3-1.3c1.6-9.1-2.3-18.3-9.8-23.6L378.8,332.6z
		 M279.8,402.7l13.1-9.2c1.3-1,3-1.5,4.6-1.5c0.5,0,0.9,0,1.4,0.1c4.4,0.7,7.3,4.9,6.5,9.2c-0.4,2.1-1.5,4-3.3,5.2l-13.1,9.2
		c-3.6,2.6-8.6,1.7-11.2-1.9l0,0C275.3,410.3,276.2,405.3,279.8,402.7L279.8,402.7z M311.3,419.6l9.2,13.1l-13.1,9.2l-9.2-13.1
		L311.3,419.6z M316.7,455l13.1-9.2c3.6-2.6,8.6-1.8,11.2,1.8c2.6,3.6,1.8,8.6-1.8,11.2c0,0-0.1,0.1-0.1,0.1L326,468
		c-3.6,2.6-8.6,1.7-11.2-1.9C312.3,462.5,313.1,457.5,316.7,455L316.7,455z M263.7,463.1c-9.3-13.1-9.8-30.6-1.3-44.3
		c3.2,7.4,10,12.7,17.9,14.1c0.4,0.1,0.9,0.1,1.3,0.2l16.3,23.1c-1.5,6.7-0.2,13.6,3.8,19.2l0,0c0.9,1.3,2,2.6,3.2,3.7
		C289.3,482.5,273,476.2,263.7,463.1z M446.7,298.9c21.8,3.7,36.4,24.4,32.7,46.2c-0.9,5.1-2.7,10-5.5,14.4
		c-3.4-7.8-10.8-13.3-19.3-14.2l-16.3-23.1c1.9-8.3-0.8-17.1-7-22.9c2.8-0.6,5.7-0.9,8.6-0.9C442.2,298.3,444.5,298.5,446.7,298.9z
		 M402.4,296.4L400,298l-37.9,26.8l-7.3-11l23.8-17.9h23.6L402.4,296.4z M335.7,236.4l29.7,49.5L346,300.5l-27.3-41
		c-1.5-2.2-4-3.6-6.7-3.6H208c-13.2,0-24-10.8-24-24v-16h115.7C314.4,216,328.1,223.8,335.7,236.4L335.7,236.4z M308.1,90.1
		c6.2-1,12.5,0.6,17.4,4.5l29.5,23.6c0.4,0.4,0.9,0.7,1.4,0.9l14.8,7.4l3.9,3.9l-5.4,21.5h-20.8l-5.8-11.6c-0.4-0.8-0.9-1.5-1.5-2.1
		l-24-24c-2-2-4.9-2.8-7.6-2.1l-23.9,6l-4.7-23.7L308.1,90.1z M207.2,32c17.7,0,32,14.3,32,32h-64C175.2,46.3,189.5,32,207.2,32z
		 M231.2,80v24c0,13.3-10.7,24-24,24s-24-10.7-24-24V80H231.2z M154,112h14c4.4,21.6,25.5,35.6,47.2,31.2
		c18.7-3.8,32.1-20.2,32-39.2v-3.8l18.5-3.1l5.5,27.5l-28,21c-2,1.5-3.2,3.9-3.2,6.4v48h-56v-16c0-1.2-0.3-2.5-0.8-3.6l-16-32
		c-2-4-6.8-5.6-10.7-3.6l-17.5,8.8l-15.6-24.9L154,112z M55,236.3l14.7-14.7c1.1-1.1,1.8-2.4,2.2-3.9l13.1-59
		c1.3-6,5.2-11.2,10.6-14.3l13.8-7.9l15.2,24.3l-16.1,8.1c-2,1-3.5,2.8-4.1,5l-16,56c-0.2,0.7-0.3,1.5-0.3,2.2v16h-8
		c-3.2,0-6.2,2-7.4,5l-3.2,7.7l-19.6-9L55,236.3z"/>
	<path class="st0" d="M146.6,326.1l-40,36c-3.3,2.9-3.7,7.9-0.8,11.3c2.9,3.3,7.9,3.7,11.3,0.8c0.1-0.1,0.2-0.1,0.2-0.2l40-36
		c3.2-3,3.4-8.1,0.4-11.3C154.8,323.5,149.9,323.2,146.6,326.1z"/>
	<path class="st0" d="M421.9,178.6c-3-3.3-8-3.6-11.3-0.6c0,0,0,0,0,0l-40,36c-3.3,2.9-3.7,7.9-0.8,11.3c2.9,3.3,7.9,3.7,11.3,0.8
		c0.1-0.1,0.2-0.1,0.2-0.2l40-36C424.6,187,424.9,181.9,421.9,178.6C421.9,178.6,421.9,178.6,421.9,178.6z"/>
	<path class="st0" d="M410.6,218.9l-8,7.2c-3.3,2.9-3.7,7.9-0.8,11.3c2.9,3.3,7.9,3.7,11.3,0.8c0.1-0.1,0.2-0.1,0.2-0.2l8-7.2
		c3.2-3,3.4-8.1,0.4-11.3C418.8,216.3,413.9,216,410.6,218.9z"/>
	<path class="st0" d="M426.6,204.5c-3.3,2.9-3.7,7.9-0.8,11.3c2.9,3.3,7.9,3.7,11.3,0.8c0.1-0.1,0.2-0.1,0.2-0.2l16-14.4
		c3.3-2.9,3.7-7.9,0.8-11.3c-2.9-3.3-7.9-3.7-11.3-0.8c-0.1,0.1-0.2,0.1-0.2,0.2L426.6,204.5z"/>
	<path class="st0" d="M181.4,316.3l16-14.4c3.2-3,3.4-8.1,0.4-11.3c-2.9-3.1-7.8-3.4-11.1-0.6l-16,14.4c-3.3,2.9-3.7,7.9-0.8,11.3
		c2.9,3.3,7.9,3.7,11.3,0.8C181.2,316.5,181.3,316.4,181.4,316.3z"/>
	<path class="st0" d="M166.1,274.9c-2.8-3.4-7.9-3.9-11.3-1c0,0,0,0,0,0l-48,40c-3.4,2.8-3.9,7.9-1,11.3c2.8,3.4,7.9,3.9,11.3,1l0,0
		l48-40C168.5,283.3,169,278.3,166.1,274.9C166.1,274.9,166.1,274.9,166.1,274.9z"/>
	<path class="st0" d="M48,160c4.4,0,8-3.6,8-8c0-12.3,6.1-23.8,16.4-30.7l4-2.7c3.7-2.5,4.7-7.4,2.2-11.1s-7.4-4.7-11.1-2.2l-4,2.7
		C48.8,117.8,40,134.3,40,152C40,156.4,43.6,160,48,160z"/>
	<path class="st0" d="M304.1,37.7l-10,2.5c-4.3,1-6.9,5.4-5.9,9.7s5.4,6.9,9.7,5.9c0,0,0.1,0,0.1,0l10-2.5
		c10.9-2.7,22.4,0.5,30.4,8.4c3.1,3.1,8.2,3.1,11.3,0c3.1-3.1,3.1-8.2,0-11.3C337.7,38.5,320.5,33.7,304.1,37.7z"/>
</g>
</svg>
