<?xml version="1.0" encoding="utf-8"?>
<!-- Generator: Adobe Illustrator 24.0.2, SVG Export Plug-In . SVG Version: 6.00 Build 0)  -->
<svg version="1.1" id="Capa_1" xmlns="http://www.w3.org/2000/svg" xmlns:xlink="http://www.w3.org/1999/xlink" x="0px" y="0px"
	 viewBox="0 0 512 512" style="enable-background:new 0 0 512 512;" xml:space="preserve">
<style type="text/css">
	.st0{fill:#FE8B00;}
</style>
<g id="Outline">
	<path class="st0" d="M423.9,274.2l-54.8-7.8l-9.1-1.3V240c15.7-11.7,26.5-28.8,30.3-48h46.3c8.8,0,16-7.2,16-16
		c0-4.2-1.7-8.3-4.7-11.3l-48-48V72c0-30.9-25.1-56-56-56h-64c-30.9,0-56,25.1-56,56v48c0,0.3,0,0.7,0.1,1
		c-17.1,4.4-27.5,21.8-23.1,38.9c3.6,14.2,16.4,24.1,31,24.1h0.4c2.2,22.3,13.7,42.6,31.6,56h0v25.5l-13.2,2.8l0,0L196.3,280
		c-4.2,0.9-8.4,2.3-12.3,4.2V152c0-39.8-32.2-72-72-72s-72,32.2-72,72v272c0,39.7,32.2,72,71.9,72c17.3,0,34-6.2,47.1-17.5
		c7.5,10.9,19.8,17.5,33,17.5h24c0.6,0,1.1-0.1,1.6-0.2l94.4-19.9l94.3,19.9c0.5,0.1,1.1,0.2,1.7,0.2h24c22.1,0,40-17.9,40-40V329.6
		C471.8,301.8,451.4,278.3,423.9,274.2z M411.2,398.2l14.5-6.2H456v23.4l-47.4-3.7l-24.5-1.9L411.2,398.2z M280,272v-22.7
		c20.4,8.9,43.6,8.9,64,0V272c0,4,2.9,7.3,6.9,7.9l8.8,1.3c-2.9,22.2-21.8,38.8-44.2,38.8h-6.9c-22.1,0-40.9-16.3-44.1-38.2l9.2-2
		C277.4,279,280,275.8,280,272z M386.5,176c-14.9,0-29.1-5.9-39.6-16.4L315.3,128h73.4l48,48H386.5z M240,112V96h40c4.4,0,8,3.6,8,8
		s-3.6,8-8,8H240z M242.6,57.9c10.1,3.4,17.8,11.7,20.4,22.1h-23v-8C240,67.2,240.9,62.4,242.6,57.9z M256,40c6.9-5.2,15.3-8,24-8
		h64c22.1,0,40,17.9,40,40v40h-81.4c4.4-12.5-2.1-26.2-14.6-30.6c-2.6-0.9-5.3-1.4-8-1.4h-0.7c-2.6-15.9-13.2-29.4-28-35.8
		C252.8,42.7,254.3,41.3,256,40z M216,152c0-8.8,7.2-16,16-16v32C223.2,168,216,160.8,216,152z M248,176v-48h44.7l42.9,42.9
		c10.5,10.5,24,17.5,38.6,20c-8.3,34.4-42.8,55.5-77.1,47.3C268.3,231.3,248,205.6,248,176z M199.6,295.7l49.2-10.5
		c4.8,29.3,30.1,50.8,59.8,50.8h6.9c30.3,0,56-22.5,60-52.5l46.2,6.5c19.6,2.9,34.2,19.7,34.4,39.6V376h-32c-1.1,0-2.2,0.2-3.2,0.6
		l-4.8,2.1V352h-16v33.6l-33.9,14.5l-54.1,4.2l-54-4.2L224,385.6V352h-16v26.7l-4.8-2.1c-1-0.4-2.1-0.6-3.2-0.6h-16v-73.2
		C188.6,299.3,194,296.9,199.6,295.7z M88,382.6c9.6-3.4,16-12.5,16-22.6v-8h16v8c0,10.2,6.4,19.2,16,22.6V400H88V382.6z M136,360
		v-16c0-4.4-3.6-8-8-8H96c-4.4,0-8,3.6-8,8v16c0,2.5-1.2,4.9-3.2,6.4c-3-4-7.7-6.4-12.8-6.4H56V216h16c5,0,9.8-2.4,12.8-6.4
		c2,1.5,3.2,3.9,3.2,6.4v16c0,4.4,3.6,8,8,8h32c4.4,0,8-3.6,8-8v-16c0-2.5,1.2-4.9,3.2-6.4c3,4,7.7,6.4,12.8,6.4h16v144h-16
		c-5,0-9.8,2.4-12.8,6.4C137.2,364.9,136,362.5,136,360z M56,376h16v32H56V376z M72,200H56v-32h16V200z M136,193.4
		c-9.6,3.4-16,12.5-16,22.6v8h-16v-8c0-10.2-6.4-19.2-16-22.6V176h48V193.4z M168,200h-16v-32h16V200z M152,376h16v32h-16V376z
		 M112,96c30.9,0,56,25.1,56,56h-16c-5.7,0-11,3.1-13.8,8H85.8c-2.9-4.9-8.1-8-13.8-8H56C56,121.1,81.1,96,112,96z M112,480
		c-30.9,0-56-25.1-56-56h16c5.7,0,11-3.1,13.8-8h52.3c2.9,4.9,8.1,8,13.8,8h16C168,454.9,142.9,480,112,480z M215.2,480H192
		c-9.3,0-17.8-5.4-21.7-13.8c4-5.6,7.3-11.7,9.6-18.2h17.7l14,9.3l8,5.4c1.3,0.9,2.9,1.4,4.5,1.4h31.2l18,3.8L215.2,480z M456,456
		c0,13.2-10.8,24-24,24h-23.2l-151.2-31.8c-0.5-0.1-1.1-0.2-1.6-0.2h-29.6l-22-14.7c-1.3-0.9-2.9-1.3-4.4-1.3h-16.5
		c0.3-2.6,0.5-40,0.5-40h14.4l14.5,6.2l40,17.1c0.8,0.3,1.7,0.6,2.5,0.6l152,11.7l48.6,3.8V456z"/>
	<path class="st0" d="M276,160c6.6,0,12-5.4,12-12s-5.4-12-12-12s-12,5.4-12,12C264,154.6,269.4,160,276,160z"/>
	<path class="st0" d="M288,200h16.9c11.3,0,22.6-1.6,33.4-4.9l-4.6-15.3c-9.3,2.8-19,4.2-28.7,4.2H288V200z"/>
	<rect x="104" y="184" class="st0" width="16" height="16"/>
	<rect x="104" y="376" class="st0" width="16" height="16"/>
</g>
</svg>
