<?xml version="1.0" encoding="utf-8"?>
<!-- Generator: Adobe Illustrator 24.0.2, SVG Export Plug-In . SVG Version: 6.00 Build 0)  -->
<svg version="1.1" id="Capa_1" xmlns="http://www.w3.org/2000/svg" xmlns:xlink="http://www.w3.org/1999/xlink" x="0px" y="0px"
	 viewBox="0 0 512 512" style="enable-background:new 0 0 512 512;" xml:space="preserve">
<style type="text/css">
	.st0{fill:#FE8B00;}
</style>
<g id="Outline">
	<path class="st0" d="M81,152.5c-2.7,9.6,0.3,21.2,8.8,29.7c5.9,6.1,14.1,9.6,22.6,9.8c6.3,0.1,12.4-2.3,16.9-6.7
		c0.4-0.4,0.8-0.8,1.2-1.3H200v48h16v-56c0-4.4-3.6-8-8-8h-32v-32h10.5v-16h-54.8L87.3,68.2l-7.5-30.2c-0.4-1.4-1.1-2.7-2.1-3.7
		l-16-16c-2.4-2.4-6.2-3-9.2-1.5l-32,16c-4,2-5.6,6.8-3.6,10.7c0.1,0.2,0.2,0.4,0.3,0.5L81,152.5z M77.1,81l29.7,34.7l-13.5,22.5
		c-0.6,0.3-1.1,0.5-1.7,0.8L60.3,85.2L77.1,81z M118,174c-3.7,3.7-11.4,2.3-16.8-3.1S94.3,157.7,98,154c1.5-1.4,3.5-2.1,5.6-2.1
		c3.6,0,7.9,1.8,11.2,5.2C120.2,162.6,121.7,170.3,118,174L118,174z M160,168h-24.1c0-0.4,0-0.8,0-1.2l14-30.8H160V168z M132.3,136
		l-5,11c-0.4-0.4-0.7-0.8-1.1-1.2c-3.8-3.9-8.5-6.7-13.7-8.4l5.4-9l4.1,4.7c1.5,1.8,3.7,2.8,6.1,2.8H132.3z M54.4,33.7l10.4,10.4
		l5.5,22.1l-18.5,4.6L35.3,43.3L54.4,33.7z"/>
	<path class="st0" d="M491.6,232.8l-14.8-7.4l-6.7-6.7l-55.5-74c3.4-9.8,0.4-22.1-8.4-30.9c-11.7-11.7-29.4-13.1-39.4-3.1
		c-2.6,2.6-4.5,5.8-5.5,9.3H296V72c0-30.9-25.1-56-56-56s-56,25.1-56,56v8c0,4.4,3.6,8,8,8h8v32c0,17.7,14.3,32,32,32h32
		c11.4,0,22-6.1,27.7-16H336v32h-24c-4.4,0-8,3.6-8,8v72H144c-17.7,0-32,14.3-32,32v81.8l-15.7,3.9c-11.5,2.9-18.5,14.5-15.6,26
		c1.9,7.6,7.7,13.5,15.3,15.5c-2.5,1-4.4,3.1-4.9,5.8l-3.4,15.6l0,0C66,424,52.3,402.7,56.9,381.1c4-18.4,20.2-31.5,39-31.6v-16
		c-26.3,0.1-49.1,18.5-54.7,44.2c-6.5,30.2,12.7,60,43,66.5l234.6,50.4c30.2,6.5,60-12.7,66.5-42.9c0,0,0-0.1,0-0.1
		c6.5-30.2-12.7-60-43-66.5c0,0,0,0,0,0l-50.3-10.8l-10.7-21.3l18.1-21.7c13.2-15.8,20.4-35.8,20.4-56.3v-91h52.4l53.6,61.3
		c0.1,0.1,0.1,0.1,0.2,0.2s0.1,0.1,0.2,0.2l24,24c0.9,0.9,1.9,1.5,3.1,1.9l24,8c4.2,1.4,8.7-0.9,10.1-5.1c0.1-0.2,0.1-0.4,0.2-0.6
		l8-32C496.7,238.3,494.9,234.5,491.6,232.8z M251.3,88H272l-8.9,11.8L251.3,88z M259.7,37.2l-7.3,3.6l7.2,14.3l12.9-6.5
		c4.9,6.8,7.5,14.9,7.5,23.3h-80c0-7.6,2.2-15.1,6.3-21.5l15.2,5.1l5.1-15.2l-7.5-2.5C231.5,30.3,247,30,259.7,37.2L259.7,37.2z
		 M216,120V88h12.7l24.8,24.8L236,136h-4C223.2,136,216,128.8,216,120z M264,136h-8l14.4-19.2L280,104v16
		C280,128.8,272.8,136,264,136z M100.1,381.2L121,376h39v16h-58.5c-3,0-5.5-2.4-5.5-5.5C96,384,97.7,381.8,100.1,381.2L100.1,381.2z
		 M215.8,358l-39.8-8.6V312h55.4l-11,13.7C213.1,334.9,211.3,347.2,215.8,358L215.8,358z M104.9,424.2l15.6,3.4l-1.7,7.8l-15.6-3.4
		L104.9,424.2z M121.6,411.4l-5.4-1.2l0.5-2.2h13.6L121.6,411.4z M137.9,423.1c0.1-0.3,0.1-0.7,0.1-1l14-5.5c2.5-1,4.3-3.1,4.9-5.8
		l0.6-2.8H168c4.4,0,8-3.6,8-8v-34.2l51.1,11l18.8,30l-10.4,10.4c-8.1,8.1-8.1,21.3,0,29.5c6.6,6.6,16.9,8,25,3.4l14.6-8.4
		c0.3,0.6,0.7,1.1,1.2,1.6l10.5,10.8c-0.1,0.3-0.2,0.6-0.3,1l-3.4,15.6l-148.6-31.9L137.9,423.1z M260.6,414.7l27.7-12.3l5.2,10.4
		l-40.9,23.4c-2.3,1.3-5.3,0.5-6.6-1.8c-1.1-1.9-0.8-4.3,0.8-5.8L260.6,414.7z M329.6,407L329.6,407l-15.6-3.4l1.7-7.8l15.6,3.4
		L329.6,407z M316.1,469.6l-1.7,7.8l-15.6-3.4l1.7-7.8L316.1,469.6z M311.6,452.3l-5.5-1.2l-15.4-15.9l0.6-2.8L308,423
		c0.9-0.5,1.8-1.3,2.4-2.1l2.5-1l5.5,1.2L311.6,452.3z M364.2,418.3c5.8,8.9,7.8,19.7,5.5,30.1c-4,18.4-20.2,31.5-39.1,31.6
		c-0.2,0-0.3,0-0.5,0l3.2-14.9c0.9-4.3-1.8-8.6-6.1-9.5l6.7-31.3l0,0c4.3,0.9,8.6-1.8,9.5-6.1l3.2-14.9
		C353.9,406.5,360,411.7,364.2,418.3L364.2,418.3z M304,275c0,16.8-5.9,33.1-16.7,46.1l-21.5,25.7c-2,2.4-2.4,5.9-1,8.7l16.3,32.5
		l-11,4.9l-11,4.9l-27.3-43.7c-3.6-5.8-3.2-13.2,1.1-18.5l21.4-26.7c2.8-3.4,2.2-8.5-1.2-11.2c-1.4-1.1-3.2-1.8-5-1.8h-80
		c-4.4,0-8,3.6-8,8v56h-32v-80c0-8.8,7.2-16,16-16h160V275z M434,230.1l-36.7-42l7.5-29.9l47.2,62.9l-8.9,4.5L434,230.1z M382,170.7
		c-1.5-1.7-3.7-2.7-6-2.7h-1.8l3-12.2c3.3,1.9,6.9,3.1,10.6,3.8l-3.5,13.9L382,170.7z M378,122c1.5-1.4,3.5-2.1,5.6-2.1
		c3.6,0,7.9,1.8,11.2,5.2c5.4,5.4,6.8,13.1,3.1,16.8s-11.4,2.3-16.8-3.1S374.3,125.7,378,122z M352,136h9.3c0.7,2.3,1.6,4.5,2.8,6.6
		l-6.4,25.4H352V136z M474.3,261.7l-14-4.7l-14.8-14.8l16.9-8.5l3.9,3.9c0.6,0.6,1.3,1.1,2.1,1.5l10.3,5.1L474.3,261.7z"/>
</g>
</svg>
