<?xml version="1.0" encoding="utf-8"?>
<!-- Generator: Adobe Illustrator 24.0.2, SVG Export Plug-In . SVG Version: 6.00 Build 0)  -->
<svg version="1.1" id="Capa_1" xmlns="http://www.w3.org/2000/svg" xmlns:xlink="http://www.w3.org/1999/xlink" x="0px" y="0px"
	 viewBox="0 0 512 512" style="enable-background:new 0 0 512 512;" xml:space="preserve">
<style type="text/css">
	.st0{fill:#FE8B00;}
</style>
<g>
	<g>
		<path class="st0" d="M188.8,426.1c-4.1,0-7.5,3.4-7.5,7.5c0,21.7-17.7,39.4-39.4,39.4s-39.4-17.7-39.4-39.4c0-4.1-3.4-7.5-7.5-7.5
			s-7.5,3.4-7.5,7.5c0,30,24.4,54.4,54.4,54.4s54.4-24.4,54.4-54.4C196.3,429.5,192.9,426.1,188.8,426.1z"/>
	</g>
</g>
<g>
	<g>
		<path class="st0" d="M141.9,24c-30,0-54.4,24.4-54.4,54.4c0,4.1,3.4,7.5,7.5,7.5s7.5-3.4,7.5-7.5c0-21.7,17.7-39.4,39.4-39.4
			s39.4,17.7,39.4,39.4c0,4.1,3.4,7.5,7.5,7.5s7.5-3.4,7.5-7.5C196.3,48.4,171.9,24,141.9,24z"/>
	</g>
</g>
<g>
	<g>
		<path class="st0" d="M234.6,352.3h-14.3V161.7h14.3c9.6,0,17.4-7.8,17.4-17.4v-30.4c0-9.6-7.8-17.4-17.4-17.4h-14.3V78.4
			c0-43.2-35.2-78.4-78.4-78.4S63.5,35.2,63.5,78.4v18.1H49.2c-9.6,0-17.4,7.8-17.4,17.4v30.4c0,9.6,7.8,17.4,17.4,17.4h14.3v190.6
			H49.2c-9.6,0-17.4,7.8-17.4,17.4v30.4c0,9.6,7.8,17.4,17.4,17.4h14.3v16.1c0,43.2,35.2,78.4,78.4,78.4s78.4-35.2,78.4-78.4v-16.1
			h14.3c9.6,0,17.4-7.8,17.4-17.4v-30.4C252,360.1,244.2,352.3,234.6,352.3z M78.5,78.4c0-34.9,28.4-63.4,63.4-63.4
			s63.4,28.4,63.4,63.4v20.5c-3.9,2.3-6.9,6.1-8.1,10.6h-9.1c-0.2-9.8-8.2-17.7-18.1-17.7h-56.2c-9.9,0-17.9,7.9-18.1,17.7h-9.1
			c-1.2-4.5-4.2-8.3-8.1-10.6L78.5,78.4L78.5,78.4z M196.6,124.5v9.3h-8.5v-9.3C188.1,124.5,196.6,124.5,196.6,124.5z M173.1,109.9
			v34.4c0,1.7-1.4,3.1-3.1,3.1h-56.2c-1.7,0-3.1-1.4-3.1-3.1v-34.4c0-1.7,1.4-3.1,3.1-3.1H170C171.7,106.8,173.1,108.2,173.1,109.9z
			 M95.7,124.5v9.3h-8.5v-9.3C87.2,124.5,95.7,124.5,95.7,124.5z M72.2,400.1c0,1.3-1.1,2.4-2.4,2.4H49.2c-1.3,0-2.4-1.1-2.4-2.4
			v-30.4c0-1.3,1.1-2.4,2.4-2.4h20.6c1.3,0,2.4,1.1,2.4,2.4V400.1z M72.2,144.3c0,1.3-1.1,2.4-2.4,2.4H49.2c-1.3,0-2.4-1.1-2.4-2.4
			v-30.4c0-1.3,1.1-2.4,2.4-2.4h20.6c1.3,0,2.4,1.1,2.4,2.4V144.3z M78.5,269.5l60.1,24.4c0.9,0.4,1.9,0.6,2.8,0.6
			c0.9,0,1.9-0.2,2.8-0.5l2.7-1.1c2.8-1.1,4.6-3.8,4.6-6.8v-0.3c0-5.2-5.3-8.8-10.1-6.8l-62.9-25.6v-21.5l60.1,24.4
			c0.9,0.4,1.9,0.6,2.8,0.6c0.9,0,1.9-0.2,2.8-0.5l61.1-24.5v21.5l-15.7,6.3c-2.9,1.2-4.8,4-4.6,7.1c0,0.1,0,0.2,0,0.3
			c0.2,5.1,5.4,8.4,10.1,6.5l10.2-4.1v85.2c-3.9,2.3-6.9,6.1-8.1,10.6h-9.6c-2-7.8-9.1-13.7-17.5-13.7h-56.2
			c-8.5,0-15.5,5.8-17.5,13.7h-9.6c-1.2-4.5-4.2-8.3-8.1-10.6L78.5,269.5L78.5,269.5z M196.6,380.3v9.3h-8.5v-9.3H196.6z
			 M173.1,369.7v34.4c0,1.7-1.4,3.1-3.1,3.1h-56.2c-1.7,0-3.1-1.4-3.1-3.1v-34.4c0-1.7,1.4-3.1,3.1-3.1H170
			C171.7,366.6,173.1,368,173.1,369.7z M95.7,380.3v9.3h-8.5v-9.3H95.7z M205.3,433.6L205.3,433.6c0,34.9-28.4,63.4-63.4,63.4
			s-63.4-28.4-63.4-63.4v-18.5c3.9-2.3,6.9-6.1,8.1-10.6h9.1c0.2,9.8,8.2,17.7,18.1,17.7H170c9.9,0,17.9-7.9,18.1-17.7h9.1
			c1.2,4.5,4.2,8.3,8.1,10.6L205.3,433.6L205.3,433.6z M205.3,215.7L205.3,215.7l-63.9,25.6l-62.9-25.6v-56.4
			c3.9-2.3,6.9-6.1,8.1-10.6h9.6c2,7.8,9.1,13.7,17.5,13.7H170c8.5,0,15.5-5.8,17.5-13.7h9.6c1.2,4.5,4.2,8.3,8.1,10.6L205.3,215.7
			L205.3,215.7z M211.6,113.9c0-1.3,1.1-2.4,2.4-2.4h20.6c1.3,0,2.4,1.1,2.4,2.4v30.4c0,1.3-1.1,2.4-2.4,2.4H214
			c-1.3,0-2.4-1.1-2.4-2.4V113.9z M237,400.1c0,1.3-1.1,2.4-2.4,2.4H214c-1.3,0-2.4-1.1-2.4-2.4v-30.4c0-1.3,1.1-2.4,2.4-2.4h20.6
			c1.3,0,2.4,1.1,2.4,2.4L237,400.1L237,400.1z"/>
	</g>
</g>
<g>
	<g>
		<circle class="st0" cx="124.7" cy="127.1" r="6.3"/>
	</g>
</g>
<g>
	<g>
		<circle class="st0" cx="159.1" cy="127.1" r="6.3"/>
	</g>
</g>
<g>
	<g>
		<circle class="st0" cx="124.7" cy="386.9" r="6.3"/>
	</g>
</g>
<g>
	<g>
		<circle class="st0" cx="159.1" cy="386.9" r="6.3"/>
	</g>
</g>
<g>
	<g>
		<path class="st0" d="M439.7,365.3c-10.5,0-20,4-27.2,10.5l-24.9-8.4V146.6l24.9-8.4c7.2,6.5,16.7,10.5,27.2,10.5
			c22.3,0,40.5-18.2,40.5-40.5S462,67.8,439.7,67.8c-10.5,0-20,4-27.2,10.5l-24.9-8.4v-9.5c0-33.3-28.2-60.5-62.9-60.5
			c-11.3,0-20.5,9-20.5,20.2s9.2,20.2,20.5,20.2c12.1,0,21.9,9,21.9,20.2v391.1c0,11.1-9.8,20.2-21.9,20.2c-11.3,0-20.5,9-20.5,20.2
			s9.2,20.2,20.5,20.2c34.7,0,62.9-27.1,62.9-60.5v-7.5l24.9-8.4c7.2,6.5,16.7,10.5,27.2,10.5c22.3,0,40.5-18.1,40.5-40.5
			S462,365.3,439.7,365.3z M439.7,82.8c14,0,25.5,11.4,25.5,25.5c0,14-11.4,25.5-25.5,25.5c-14,0-25.5-11.4-25.5-25.5
			C414.3,94.2,425.7,82.8,439.7,82.8z M387.6,85.8l15.5,5.2c-2.5,5.2-3.9,11.1-3.9,17.3c0,6.2,1.4,12,3.9,17.3l-15.5,5.2V85.8z
			 M372.6,451.5c0,25.1-21.5,45.5-47.9,45.5c-3,0-5.5-2.3-5.5-5.2s2.5-5.2,5.5-5.2c20.3,0,36.9-15.8,36.9-35.1V60.5
			c0-19.4-16.5-35.2-36.9-35.2c-3,0-5.5-2.3-5.5-5.2s2.5-5.2,5.5-5.2c26.4,0,47.9,20.4,47.9,45.5V451.5z M403.2,423l-15.5,5.2v-45
			l15.5,5.2c-2.5,5.2-3.9,11.1-3.9,17.3S400.7,417.8,403.2,423z M439.7,431.2c-14,0-25.5-11.4-25.5-25.5c0-14,11.4-25.5,25.5-25.5
			c14,0,25.5,11.4,25.5,25.5C465.2,419.8,453.8,431.2,439.7,431.2z"/>
	</g>
</g>
<g>
	<g>
		<circle class="st0" cx="439.7" cy="108.3" r="11"/>
	</g>
</g>
<g>
	<g>
		<circle class="st0" cx="439.7" cy="405.7" r="11"/>
	</g>
</g>
</svg>
